<svg xmlns="http://www.w3.org/2000/svg" width="22.333" height="24.013" viewBox="0 0 22.333 24.013">
  <g id="구성_요소_23_1" data-name="구성 요소 23 – 1" transform="translate(0.25 0.25)">
    <path id="패스_2231" data-name="패스 2231" d="M31.833,12.2a4.2,4.2,0,1,0-8.4,0,3.926,3.926,0,0,0,.168,1.148l-6.3,3.611a4.107,4.107,0,0,0-3.107-1.4,4.2,4.2,0,0,0,0,8.4,4.107,4.107,0,0,0,3.107-1.4l6.27,3.611a5.152,5.152,0,0,0-.14,1.148,4.2,4.2,0,1,0,5.486-4h0c-.056-.028-.112-.028-.168-.056s-.14-.028-.2-.056c-.056,0-.112-.028-.168-.028a.7.7,0,0,0-.224-.028.252.252,0,0,1-.14-.028h-.392a1.848,1.848,0,0,0-.392.028h-.084a1.638,1.638,0,0,0-.364.056h-.028c-.112.028-.252.056-.364.084h-.056A4.28,4.28,0,0,0,24.024,25.1L17.95,21.632c0-.028.028-.056.028-.084a1.17,1.17,0,0,0,.112-.28c.028-.056.028-.112.056-.14.028-.084.056-.2.084-.28,0-.056.028-.112.028-.168.028-.112.028-.2.056-.308,0-.056.028-.084.028-.14a1.387,1.387,0,0,0,.056-.476,2.262,2.262,0,0,0-.028-.448c0-.056-.028-.084-.028-.14-.028-.112-.028-.2-.056-.308,0-.056-.028-.112-.028-.168-.028-.084-.056-.2-.084-.28-.028-.056-.028-.112-.056-.14-.028-.084-.084-.2-.112-.28,0-.028-.028-.056-.028-.084l6.1-3.5A4.28,4.28,0,0,0,26.4,16.229h.056c.112.028.224.056.364.084h.028a1.638,1.638,0,0,0,.364.056H27.3c.14,0,.252.028.392.028a1.848,1.848,0,0,0,.392-.028.252.252,0,0,0,.14-.028c.084,0,.168-.028.224-.028s.112-.028.168-.028c.056-.028.14-.028.2-.056s.112-.028.168-.056h0A4.19,4.19,0,0,0,31.833,12.2ZM17.25,20.036v.084c0,.056-.028.14-.028.2a.1.1,0,0,1-.028.084c-.028.084-.028.14-.056.224,0,.028,0,.028-.028.056l-.084.252c-.028.028-.028.084-.056.112-.028.056-.056.084-.056.14-.028.028-.028.084-.056.112s-.056.084-.084.112-.056.084-.084.112a3.071,3.071,0,1,1-2.519-4.815,3.028,3.028,0,0,1,2.519,1.344c.028.028.056.084.084.112s.056.084.084.112a.212.212,0,0,1,.056.112c.028.056.056.084.056.14.028.028.028.084.056.112l.084.252c0,.028,0,.028.028.056.028.084.028.14.056.224a.1.1,0,0,0,.028.084c0,.056.028.14.028.2v.084c0,.084.028.2.028.28A.616.616,0,0,1,17.25,20.036Zm7.558,6.074h0a1.767,1.767,0,0,0,.112-.252c0-.028.028-.028.028-.056a.982.982,0,0,1,.14-.224v-.028a3.03,3.03,0,0,1,1.344-1.092h.028a1.951,1.951,0,0,1,.532-.168h.056c.084,0,.14-.028.224-.028h.084c.084,0,.2-.028.28-.028a.952.952,0,0,1,.28.028h.112c.056,0,.112.028.168.028.028,0,.084.028.112.028.056,0,.084.028.14.028.028,0,.084.028.112.028a3.08,3.08,0,1,1-4,2.939A2.9,2.9,0,0,1,24.807,26.11Zm3.779-10.973c-.028,0-.084.028-.112.028-.056,0-.084.028-.14.028-.028,0-.084.028-.112.028-.056,0-.112.028-.168.028h-.112c-.084,0-.2.028-.28.028a.952.952,0,0,1-.28-.028H27.3c-.084,0-.14-.028-.224-.028h-.056a1.689,1.689,0,0,1-.532-.168h-.028a3.191,3.191,0,0,1-1.344-1.092v-.028a1.563,1.563,0,0,1-.14-.224c0-.028-.028-.028-.028-.056-.028-.084-.084-.14-.112-.224V13.4a2.539,2.539,0,0,1-.28-1.2,3.079,3.079,0,0,1,6.158,0A3.112,3.112,0,0,1,28.586,15.138Z" transform="translate(-10 -8)" fill="#fff" stroke="#fff" stroke-width="0.5"/>
  </g>
</svg>
