<svg xmlns="http://www.w3.org/2000/svg" width="11.738" height="13.685" viewBox="0 0 11.738 13.685">
  <g id="구성_요소_20_1" data-name="구성 요소 20 – 1" transform="translate(0.5 0.5)">
    <path id="패스_2211" data-name="패스 2211" d="M509.241,3757.321h-9.687a.525.525,0,0,0-.525.524v11.625a.526.526,0,0,0,.3.477.532.532,0,0,0,.561-.078l4.456-3.785,4.556,3.789a.526.526,0,0,0,.335.122.535.535,0,0,0,.224-.05.526.526,0,0,0,.3-.475v-11.625A.524.524,0,0,0,509.241,3757.321Z" transform="translate(-499.028 -3757.321)" fill="none" stroke="#777" stroke-linecap="round" stroke-linejoin="round" stroke-width="1"/>
  </g>
</svg>
