<svg id="구성_요소_11_1" data-name="구성 요소 11 – 1" xmlns="http://www.w3.org/2000/svg" xmlns:xlink="http://www.w3.org/1999/xlink" width="13.919" height="13.919" viewBox="0 0 13.919 13.919">
  <defs>
    <filter id="타원_332" x="-17" y="-14" width="47.919" height="47.919" filterUnits="userSpaceOnUse">
      <feOffset dy="3" input="SourceAlpha"/>
      <feGaussianBlur stdDeviation="5" result="blur"/>
      <feFlood flood-opacity="0.302"/>
      <feComposite operator="in" in2="blur"/>
      <feComposite in="SourceGraphic"/>
    </filter>
    <clipPath id="clip-path">
      <rect width="13.919" height="13.919" fill="none"/>
    </clipPath>
    <clipPath id="clip-path-2">
      <g transform="matrix(1, 0, 0, 1, 0, 0)" filter="url(#타원_332)">
        <circle id="타원_332-2" data-name="타원 332" cx="6.96" cy="6.96" r="6.96" fill="#38362e" stroke="#38362e" stroke-width="2"/>
      </g>
    </clipPath>
  </defs>
  <g id="구성_요소_17_1" data-name="구성 요소 17 – 1">
    <g id="반복_그리드_1" data-name="반복 그리드 1" clip-path="url(#clip-path)">
      <g id="마스크_그룹_22" data-name="마스크 그룹 22" clip-path="url(#clip-path-2)">
        <path id="패스_2184" data-name="패스 2184" d="M2.256,0C.635,0-.075,1.348-.075,2.716-.075,4.51,1,5.321,1,5.919c0,.233-.162.527-.608.76l-2.408,1.13c-.831.456-1.679,3.551-1.679,3.551l11.946-.347s-.778-2.748-1.609-3.2L4.1,6.669c-.436-.233-.639-.486-.639-.72,0-.547,1.095-1.328,1.095-3.253C4.567,1.095,3.716,0,2.256,0Z" transform="translate(4.685 2.936)" fill="#fff"/>
      </g>
    </g>
  </g>
</svg>
