<svg id="구성_요소_13_1" data-name="구성 요소 13 – 1" xmlns="http://www.w3.org/2000/svg" width="28" height="28" viewBox="0 0 28 28">
  <path id="패스_2214" data-name="패스 2214" d="M14.892,10.737,12.45,8.972a1.357,1.357,0,0,0-1.708.119L9.462,10.3A5.828,5.828,0,0,1,6.686,9.114l-.079-.062a5.894,5.894,0,0,1-.741-.7L5.8,8.274A5.234,5.234,0,0,1,4.542,5.648L5.822,4.437a1.186,1.186,0,0,0,.13-1.617L4.088.51A1.434,1.434,0,0,0,2.415.116l-.28.118L1.93.325A3.413,3.413,0,0,0,.022,3.76a11.511,11.511,0,0,0,2.843,6.323l.142.162a12.583,12.583,0,0,0,1.6,1.518l.161.127a12.863,12.863,0,0,0,6.694,2.685,3.706,3.706,0,0,0,3.626-1.807q.051-.093.1-.192l.124-.265A1.265,1.265,0,0,0,14.892,10.737Z" transform="translate(7.605 5.352) rotate(8)"/>
  <g id="타원_337" data-name="타원 337" fill="none" stroke="#000" stroke-width="1">
    <circle cx="14" cy="14" r="14" stroke="none"/>
    <circle cx="14" cy="14" r="13.5" fill="none"/>
  </g>
</svg>
