<svg id="구성_요소_11_1" data-name="구성 요소 11 – 1" xmlns="http://www.w3.org/2000/svg" width="11.763" height="11.763" viewBox="0 0 11.763 11.763">
  <path id="패스_2078" data-name="패스 2078" d="M916.408-1407.6h-.534l-.186-.184a4.351,4.351,0,0,0,1.054-2.842,4.371,4.371,0,0,0-4.371-4.371,4.371,4.371,0,0,0-4.372,4.371,4.371,4.371,0,0,0,4.372,4.371,4.352,4.352,0,0,0,2.841-1.053l.186.184v.533l3.361,3.357,1-1-3.355-3.363Zm-4.036,0a3.026,3.026,0,0,1-3.026-3.026,3.026,3.026,0,0,1,3.026-3.026,3.027,3.027,0,0,1,3.026,3.026,3.026,3.026,0,0,1-3.026,3.026Z" transform="translate(-908 1415)" fill="#767676" fill-rule="evenodd"/>
</svg>
