<svg id="구성_요소_8_1" data-name="구성 요소 8 – 1" xmlns="http://www.w3.org/2000/svg" width="18.503" height="13.345" viewBox="0 0 18.503 13.345">
  <path id="패스_2225" data-name="패스 2225" d="M11.388,24a1.268,1.268,0,0,0-.513.112l7.849,7.611a.672.672,0,0,0,1.041,0l7.864-7.611A1.268,1.268,0,0,0,27.115,24Zm-1.373,1.323A1.758,1.758,0,0,0,10,25.54V35.805a1.466,1.466,0,0,0,1.388,1.54H27.115a1.466,1.466,0,0,0,1.388-1.54V25.54a1.806,1.806,0,0,0-.014-.217l-7.813,7.563a2.025,2.025,0,0,1-2.862,0Z" transform="translate(-10 -24)" fill="#e2e2e2"/>
</svg>
