<svg id="구성_요소_11_1" data-name="구성 요소 11 – 1" xmlns="http://www.w3.org/2000/svg" width="24.491" height="24.499" viewBox="0 0 24.491 24.499">
  <path id="패스_2246" data-name="패스 2246" d="M27.768,13.352A12.253,12.253,0,1,0,13.352,27.768,12.471,12.471,0,0,0,15.717,28,12.266,12.266,0,0,0,27.755,13.352ZM11.576,22.759a6.068,6.068,0,0,1-1.982-1.948,1.428,1.428,0,0,1,.138-1.333,1.892,1.892,0,0,1,1.29-1.045,2.3,2.3,0,0,1,1,.43,5.5,5.5,0,0,0,1.5.507c.322.073.6.15.727.482a2.37,2.37,0,0,0,1.509,1.324c.176.064,1.384.314,1.29.611s-.632.43-.86.486A3.029,3.029,0,0,0,14.117,24.7a6.115,6.115,0,0,1-.559,1.367,10.51,10.51,0,0,1-1.72-.512,4.128,4.128,0,0,0,.116-1.032C11.955,23.176,11.753,22.875,11.576,22.759ZM23.864,9.276a.327.327,0,0,1-.3.189c-.825,0-1.883.675-2.67.267-.559-.292-.86-.86-1.526-1.01-1.29-.249-2.042.86-2.648,1.814-.469.731-1.225,1.986-2.261,1.509a1.234,1.234,0,0,1-.658-1.29c.138-.533.727-.77,1.139-1.045.632-.43.533-.972.271-1.586-.228-.542-.181-.985.494-1.075A3.043,3.043,0,0,0,17.9,5.437a10.6,10.6,0,0,1,5.92,3.547A.275.275,0,0,1,23.864,9.276ZM21.843,24.35c-.163-.821-.77-1.793-.43-2.635a2.645,2.645,0,0,0,.43-1.492,4.439,4.439,0,0,1-.236-1.079c.026-.34.344-.645.181-1a1.858,1.858,0,0,0-2.034-.469c-.95.778-1.642,1.29-2.511,1.045a1.291,1.291,0,0,1-.86-.739,2.58,2.58,0,0,1,.12-1.346,5.891,5.891,0,0,0,.172-1.32,1.718,1.718,0,0,1,.193-1.053,2.148,2.148,0,0,1,1.169-.662,7.866,7.866,0,0,0,2.605-1.29c.348-.254,1.29-.378,1.526-.064.155.2.086.512.1.748a1.355,1.355,0,0,0,.963,1.29,1.217,1.217,0,0,0,1.114-.477c.232-.236.619-.924,1.019-.748.211.095.43.176.623.254A10.473,10.473,0,0,1,21.843,24.35Z" transform="translate(-3.497 -3.497)" fill="#8e8e8e"/>
</svg>
