<svg id="구성_요소_22_1" data-name="구성 요소 22 – 1" xmlns="http://www.w3.org/2000/svg" width="17.621" height="22.026" viewBox="0 0 17.621 22.026">
  <path id="패스_2232" data-name="패스 2232" d="M31.621,32.645a.832.832,0,0,1-.881.881H14.881a.881.881,0,1,1,0-1.762H30.739A.832.832,0,0,1,31.621,32.645Zm-.969-11.806a.852.852,0,0,0-1.233,0l-5.727,5.727V12.381a.881.881,0,0,0-1.762,0V26.566L16.2,20.839a.872.872,0,1,0-1.233,1.233L22.194,29.3c.088.088.176.176.264.176a.749.749,0,0,0,.7,0c.088-.088.176-.088.264-.176l7.224-7.224A.852.852,0,0,0,30.651,20.839Z" transform="translate(-14 -11.5)" fill="#fff"/>
</svg>
