<svg xmlns="http://www.w3.org/2000/svg" width="15.033" height="15.033" viewBox="0 0 15.033 15.033">
  <g id="구성_요소_10_1" data-name="구성 요소 10 – 1" transform="translate(0.498 0.584)">
    <path id="패스_2224" data-name="패스 2224" d="M14.465,11.04,12.737,9.312a1.446,1.446,0,0,0-2.135,0l-1,1-.122-.062a3.418,3.418,0,0,1-.425-.238A10.538,10.538,0,0,1,6.462,7.656,5.852,5.852,0,0,1,5.6,6.334c.153-.152.306-.3.459-.449.181-.175.361-.349.547-.536A1.462,1.462,0,0,0,6.6,3.178l-.843-.843c-.1-.1-.193-.2-.287-.292-.189-.194-.384-.394-.584-.58a1.446,1.446,0,0,0-2.128.007L1.694,2.536a2.1,2.1,0,0,0-.68,1.453,5.45,5.45,0,0,0,.4,2.329,13.406,13.406,0,0,0,2.371,3.963,14.923,14.923,0,0,0,4.906,3.84,7.589,7.589,0,0,0,2.789.82c.072,0,.142.007.212.007a2.271,2.271,0,0,0,1.788-.772c.2-.219.417-.426.642-.646.113-.11.226-.221.34-.335A1.444,1.444,0,0,0,14.465,11.04Z" transform="translate(-1 -1)" fill="#fff" stroke="#1c913e" stroke-width="1"/>
  </g>
</svg>
