<svg id="구성_요소_8_1" data-name="구성 요소 8 – 1" xmlns="http://www.w3.org/2000/svg" width="38.171" height="46.533" viewBox="0 0 38.171 46.533">
  <path id="패스_2225" data-name="패스 2225" d="M15.157,19H12.771C8,19,8,23.489,8,24.964v5.964c0,1.476,0,5.964,4.771,5.964h2.386a2.336,2.336,0,0,0,2.386-2.287c0-.033,0-.066,0-.1V21.386A2.336,2.336,0,0,0,15.256,19C15.223,19,15.19,19,15.157,19Zm0,15.507H12.771c-1.119,0-2.386,0-2.386-3.578V24.964c0-3.578,1.267-3.578,2.386-3.578h2.386Z" transform="translate(-8 -2.291)" fill="#dd0c11"/>
  <path id="패스_2226" data-name="패스 2226" d="M39.629,20.508h2.386A15,15,0,0,0,27.545,5c-.346-.012-.691-.012-1.037,0A15,15,0,0,0,11,19.472c-.012.346-.012.691,0,1.037h2.386c0-7.726,5.4-13.121,13.121-13.121S39.629,12.782,39.629,20.508Z" transform="translate(-7.423 -4.992)" fill="#dd0c11"/>
  <path id="패스_2227" data-name="패스 2227" d="M38.892,19H36.507a2.336,2.336,0,0,0-2.386,2.287c0,.033,0,.066,0,.1V34.507a2.336,2.336,0,0,0,2.287,2.386c.033,0,.066,0,.1,0h1.131c-.32,3.008-2.147,5.934-9.711,7.016a3.392,3.392,0,0,0-3.348-2.245,3.578,3.578,0,1,0,0,7.157A3.38,3.38,0,0,0,28,46.3c9.807-1.343,11.768-5.8,12.038-9.52,3.609-.673,3.621-4.508,3.621-5.852V24.964C43.664,23.489,43.664,19,38.892,19ZM24.578,46.435a1.193,1.193,0,1,1,1.193-1.193A1.193,1.193,0,0,1,24.578,46.435Zm16.7-15.507c0,3.578-1.267,3.578-2.386,3.578l-2.386-.033V21.386h2.386c1.119,0,2.386,0,2.386,3.578Z" transform="translate(-5.493 -2.291)" fill="#dd0c11"/>
</svg>
