<svg xmlns="http://www.w3.org/2000/svg" width="21.388" height="20.836" viewBox="0 0 21.388 20.836">
  <g id="icon_전화" transform="translate(0.998 1.126)">
    <path id="icon_전화-2" data-name="icon_전화" d="M19.717,14.467l-2.4-2.318a2.059,2.059,0,0,0-2.968,0l-1.388,1.339-.17-.082a4.8,4.8,0,0,1-.591-.32A14.481,14.481,0,0,1,8.592,9.928,7.823,7.823,0,0,1,7.4,8.154c.213-.2.426-.4.638-.6.251-.235.5-.469.761-.719a1.916,1.916,0,0,0-.009-2.911L7.615,2.79c-.136-.131-.268-.262-.4-.391-.263-.26-.534-.529-.812-.777a2.06,2.06,0,0,0-2.959.009L1.964,3.06a2.777,2.777,0,0,0-.946,1.949A7.084,7.084,0,0,0,1.58,8.134a17.86,17.86,0,0,0,3.3,5.316A20.655,20.655,0,0,0,11.7,18.6a10.84,10.84,0,0,0,3.877,1.1c.1.006.2.009.294.009a3.211,3.211,0,0,0,2.485-1.035c.285-.293.58-.572.892-.867.157-.148.315-.3.472-.449A1.892,1.892,0,0,0,19.717,14.467Z" transform="translate(-1 -1)" fill="#e2e2e2" stroke="#fff" stroke-width="2"/>
  </g>
</svg>
