<svg id="구성_요소_12_1" data-name="구성 요소 12 – 1" xmlns="http://www.w3.org/2000/svg" width="25.532" height="23.063" viewBox="0 0 25.532 23.063">
  <g id="그룹_1410" data-name="그룹 1410">
    <circle id="타원_346" data-name="타원 346" cx="5.179" cy="5.179" r="5.179" transform="translate(7.587 7.527)" fill="#8e8e8e"/>
    <path id="패스_2245" data-name="패스 2245" d="M29.248,14.892H27.953a2.215,2.215,0,0,1-1.536-.632l-1.686-1.716a2.73,2.73,0,0,0-1.987-.843H17.837a2.711,2.711,0,0,0-2.017.873l-1.6,1.656a2.187,2.187,0,0,1-1.566.662H11.484A3.893,3.893,0,0,0,7.6,18.776v12.1a3.893,3.893,0,0,0,3.884,3.884H29.248a3.893,3.893,0,0,0,3.884-3.884v-12.1A3.893,3.893,0,0,0,29.248,14.892Zm-8.882,16.65A7.136,7.136,0,1,1,27.5,24.406,7.132,7.132,0,0,1,20.366,31.542Zm8.641-11.261a1.475,1.475,0,1,1,1.475-1.475A1.478,1.478,0,0,1,29.007,20.281Z" transform="translate(-7.6 -11.7)" fill="#8e8e8e"/>
  </g>
</svg>
