<svg xmlns="http://www.w3.org/2000/svg" width="15.386" height="15.386" viewBox="0 0 15.386 15.386">
  <g id="구성_요소_9_1" data-name="구성 요소 9 – 1" transform="translate(0.248 0.322)">
    <path id="패스_2224" data-name="패스 2224" d="M15.3,11.663,13.465,9.827a1.535,1.535,0,0,0-2.268,0l-1.061,1.061-.13-.065a3.63,3.63,0,0,1-.451-.253A11.191,11.191,0,0,1,6.8,8.069a6.215,6.215,0,0,1-.913-1.4c.163-.161.325-.318.488-.477.192-.186.383-.371.581-.57a1.553,1.553,0,0,0-.007-2.3l-.9-.9c-.1-.1-.2-.207-.305-.31-.2-.206-.408-.419-.62-.615a1.536,1.536,0,0,0-2.26.007L1.737,2.631a2.231,2.231,0,0,0-.723,1.543,5.788,5.788,0,0,0,.429,2.474,14.237,14.237,0,0,0,2.518,4.209,15.849,15.849,0,0,0,5.21,4.079,8.059,8.059,0,0,0,2.962.871c.076,0,.151.007.225.007a2.412,2.412,0,0,0,1.9-.819c.217-.232.443-.452.681-.686.12-.117.24-.235.361-.356A1.533,1.533,0,0,0,15.3,11.663Z" transform="translate(-1 -1)" stroke="#edeff0" stroke-width="0.5"/>
  </g>
</svg>
