<svg id="구성_요소_8_1" data-name="구성 요소 8 – 1" xmlns="http://www.w3.org/2000/svg" width="150.097" height="160.651" viewBox="0 0 150.097 160.651">
  <path id="합치기_1" data-name="합치기 1" d="M134.465,160.651q-60.182-.112-120.364-.005c-4.838.006-7.036-1.772-7.018-6.214.076-18.2.031-36.4.037-54.6,0-3.295,1.159-6.016,5.3-6.118,4.562-.113,5.719,2.88,5.731,6.316.052,14.706.029,29.412.031,44.117,0,1.971,0,3.941,0,6.2H130.5v-5.985q0-21.782-.006-43.566c-.006-3.7,1.172-6.912,5.809-6.916,4.371,0,5.478,3.153,5.48,6.594q.018,26.748.02,53.494c.007,4.5-2.113,6.68-7.3,6.68ZM49.257,136.866v-22.1c0-4.907,6.007-7.764,10.713-7.764,4.859,0,10.714,2.858,10.714,7.764v22.1c0,4.907-5.854,7.763-10.714,7.763C55.264,144.629,49.257,141.773,49.257,136.866Zm4.592-21.284v20.475c0,3.361,3.635,4.674,6.121,4.674s6.122-1.313,6.122-4.674V115.582c0-3.361-3.634-4.674-6.122-4.674S53.849,112.221,53.849,115.582Zm52.073,27.929V107.969h19.741v4.056H110.514v11.127h14.768v4.056H110.514v12.246h15.53v4.056Zm-8.82,0V116.852l-7.616,13.253H87.114L79.5,116.852V143.51H74.909V107.969h4.477L88.3,123.423l8.916-15.455h4.475V143.51Zm-56.662,0V127.439H28.2V143.51H23.606V107.969H28.2v15.413H40.44V107.969h4.593V143.51Zm65.174-42.136V65.834h4.592V97.319h15.917v4.055Zm-7.6,0L95,90.943H82.139l-3.02,10.431H74.413L84.74,65.834h7.655l10.329,35.54ZM83.287,86.887H93.811l-4.9-17h-.69ZM51.976,101.374V65.834H71.718V69.89H56.568V81.016H71.336v4.057H56.568V97.319H72.1v4.055Zm-8.358,0-7.5-13.908H28.2v13.908H23.605V65.834H38.029a7.062,7.062,0,0,1,7,7.069v7.5a7.2,7.2,0,0,1-4.092,6.449l7.918,14.526ZM28.2,83.41h8.494a3.572,3.572,0,0,0,3.749-3.787V73.676a3.531,3.531,0,0,0-3.749-3.785H28.2Zm110.85-8.818Q109.334,46.231,79.569,17.918c-1.55-1.476-3.177-2.878-5.08-4.6-1.854,1.647-3.495,3.018-5.035,4.485Q40.56,45.306,11.687,72.828c-1.292,1.23-2.47,3.118-4,3.447-2.217.478-5.52.623-6.836-.6C-.39,74.526,0,71.383.331,69.207c.168-1.1,1.772-2.026,2.774-2.984Q35.571,35.145,68.057,4.084c5.709-5.452,7.132-5.476,12.888.111q18.749,18.2,37.36,36.521l1.994-1.089c0-4.215.01-8.43,0-12.645-.012-3.809-.077-8.064,5.345-8.069,5.7,0,5.747,4.4,5.741,8.437-.008,6.983-.262,13.981.145,20.944A12.363,12.363,0,0,0,134.61,55.3c3.826,4.252,8.2,8.052,12.363,12.026,2.617,2.5,4.752,5.188,1.411,8.443a5.5,5.5,0,0,1-3.838,1.843C142.6,77.612,140.8,76.264,139.047,74.592Z" transform="translate(0 0)" fill="#d01"/>
</svg>
